<svg xmlns="http://www.w3.org/2000/svg" width="45" height="44.996" viewBox="0 0 45 44.996">
  <path id="Icon_ionic-ios-call" data-name="Icon ionic-ios-call" d="M5.79,39.735a37.8,37.8,0,0,1,7.9-5.283c2.366-1.136,3.233-1.113,4.908.094,1.394,1.007,2.3,1.945,3.9,1.593s4.768-2.741,7.837-5.8,5.459-6.232,5.8-7.837-.6-2.507-1.593-3.9c-1.207-1.675-1.242-2.542-.094-4.908a37.049,37.049,0,0,1,5.283-7.9c1.722-1.722,2.109-1.347,3.057-1.007a17.4,17.4,0,0,1,2.8,1.488,8.446,8.446,0,0,1,3.362,3.549c.668,1.441,1.441,4.123-2.5,11.129A62.1,62.1,0,0,1,35.533,35.518h0l-.012.012-.012.012h0A62.34,62.34,0,0,1,20.948,46.459c-7.005,3.936-9.688,3.163-11.129,2.5a8.3,8.3,0,0,1-3.55-3.362,17.4,17.4,0,0,1-1.488-2.8C4.443,41.844,4.056,41.457,5.79,39.735Z" transform="translate(-4.49 -4.502)" fill="#fcfcfc"/>
</svg>
