<svg id="siren" xmlns="http://www.w3.org/2000/svg" width="29.918" height="29.918" viewBox="0 0 29.918 29.918">
  <path id="Path_4" data-name="Path 4" d="M0,241H3.564v1.753H0Zm0,0" transform="translate(0 -226.918)" fill="#fcfcfc"/>
  <path id="Path_5" data-name="Path 5" d="M451,241h3.564v1.753H451Zm0,0" transform="translate(-424.646 -226.918)" fill="#fcfcfc"/>
  <path id="Path_6" data-name="Path 6" d="M383.277,67.569l2.479-2.479L387,66.329l-2.479,2.479Zm0,0" transform="translate(-360.881 -61.286)" fill="#fcfcfc"/>
  <path id="Path_7" data-name="Path 7" d="M67.565,68.8l-2.479-2.479,1.239-1.239L68.8,67.565Zm0,0" transform="translate(-61.283 -61.283)" fill="#fcfcfc"/>
  <path id="Path_8" data-name="Path 8" d="M241,0h1.753V3.564H241Zm0,0" transform="translate(-226.918)" fill="#fcfcfc"/>
  <path id="Path_9" data-name="Path 9" d="M92.753,452A1.753,1.753,0,0,0,91,453.753v1.753h19.283v-1.753A1.753,1.753,0,0,0,108.53,452Zm0,0" transform="translate(-85.683 -425.588)" fill="#fcfcfc"/>
  <path id="Path_10" data-name="Path 10" d="M121,128.889v9.7h15.777v-9.7a7.889,7.889,0,0,0-15.777,0Zm7.012-2.63h1.753v5.259h-1.753Zm0,7.012h1.753v1.753h-1.753Zm0,0" transform="translate(-113.93 -113.93)" fill="#fcfcfc"/>
</svg>
